<svg id="Layer_1" data-name="Layer 1" xmlns="http://www.w3.org/2000/svg" xmlns:xlink="http://www.w3.org/1999/xlink" viewBox="0 0 384.25 103.29">
  <defs>
    <style>
      .cls-1 {
        fill: none;
      }

      .cls-2 {
        fill: #3f7c8d;
      }

      .cls-3 {
        clip-path: url(#clip-path);
      }

      .cls-4 {
        fill: #58595b;
      }
    </style>
    <clipPath id="clip-path">
      <rect class="cls-1" x="-56.16" y="-20.36" width="462.72" height="123.65"/>
    </clipPath>
  </defs>
  <title>logo</title>
  <g>
    <path class="cls-2" d="M27.37,60.65H17.21L15.79,74.57H6.64L14.16,3.41H30.42l7.32,71.16H28.8ZM18.22,51.5h8.13L22.29,12.56Z"/>
    <path class="cls-2" d="M43.44,16.63h9.15V65.42H63.36v9.15H43.44V16.63Z"/>
    <path class="cls-2" d="M88.47,64.71H79L77.8,74.57H68l7.52-57.94H91.83l7.32,57.94H89.69Zm-8.34-9.15h7.22L83.69,25.78Z"/>
    <path class="cls-2" d="M115.82,16.63l8.74,27.24V16.63h9.15V74.57h-9.45L113.78,41.43V74.57h-9.15V16.63h11.18Z"/>
    <path class="cls-2" d="M151.7,3.41h9.15V36.25h7.73V3.41h9.15V74.57h-9.15V45.4h-7.73V74.57H151.7V3.41Z"/>
    <path class="cls-2" d="M184.95,22.73a6.25,6.25,0,0,1,6.1-6.1h13.82a6.12,6.12,0,0,1,6.1,6.1V68.57a6.1,6.1,0,0,1-6.1,6H191a6.16,6.16,0,0,1-6.1-6V22.73Zm16.87,3h-7.73V65.42h7.73V25.78Z"/>
    <path class="cls-2" d="M225,16.63l6.1,43.71,6.1-43.71h9.45L238,74.57H224.19l-8.64-57.94H225Z"/>
    <path class="cls-2" d="M251.23,22.73a6.25,6.25,0,0,1,6.1-6.1h13.83a6.12,6.12,0,0,1,6.1,6.1V68.57a6.1,6.1,0,0,1-6.1,6H257.33a6.16,6.16,0,0,1-6.1-6V22.73Zm16.87,3h-7.73V65.42h7.73V25.78Z"/>
    <path class="cls-2" d="M301.24,51.4h-7.73V74.57h-9.15V16.63h18.81a6.12,6.12,0,0,1,6.1,6.1v18.6c0,2.54-1.32,4.47-3.15,5,2.75,0.61,4.27,3.46,4.27,6V74.57h-9.15V51.4Zm-7.73-9.15h6.61V25.78h-6.61V42.25Z"/>
    <path class="cls-2" d="M326.76,16.63V37.27l7.12-20.64h9.66l-9.66,26.94,10.78,31H335.2l-8.44-24v24h-9.15V16.63h9.15Z"/>
    <path class="cls-2" d="M367.62,64.71h-9.45L357,74.57h-9.76l7.52-57.94H371l7.32,57.94h-9.45Zm-8.33-9.15h7.22l-3.66-29.78Z"/>
  </g>
  <g class="cls-3">
    <g>
      <path class="cls-4" d="M9.13,92.83v2.93H11V84.14h2.18V96.5a1.45,1.45,0,0,1-1.45,1.43H8.4A1.47,1.47,0,0,1,7,96.5V92.83H9.13Z"/>
      <path class="cls-4" d="M15.57,85.59A1.49,1.49,0,0,1,17,84.14h3.29a1.46,1.46,0,0,1,1.45,1.45V96.5a1.45,1.45,0,0,1-1.45,1.43H17a1.47,1.47,0,0,1-1.45-1.43V85.59Zm4,0.73H17.74v9.44h1.84V86.32Z"/>
      <path class="cls-4" d="M26.36,84.14V95.75H28.2V84.14h2.18V96.5a1.45,1.45,0,0,1-1.45,1.43H25.63a1.47,1.47,0,0,1-1.45-1.43V84.14h2.18Z"/>
      <path class="cls-4" d="M36.81,92.41H35v5.52H32.8V84.14h4.48a1.46,1.46,0,0,1,1.45,1.45V90A1.16,1.16,0,0,1,38,91.2a1.43,1.43,0,0,1,1,1.43v5.3H36.81V92.41ZM35,90.24h1.57V86.32H35v3.92Z"/>
      <path class="cls-4" d="M44.07,84.14l2.08,6.49V84.14h2.18V97.93H46.08L43.59,90v7.89H41.41V84.14h2.66Z"/>
      <path class="cls-4" d="M55,95.58H52.76l-0.29,2.35H50.15l1.79-13.79h3.87l1.74,13.79H55.3Zm-2-2.18h1.72l-0.87-7.09Z"/>
      <path class="cls-4" d="M59.34,84.14h2.18V95.75h2.57v2.18H59.34V84.14Z"/>
      <path class="cls-4" d="M66,84.14H68.2V97.93H66V84.14Z"/>
      <path class="cls-4" d="M72.77,94.28v1.48h1.84V92H72a1.45,1.45,0,0,1-1.45-1.43v-5A1.38,1.38,0,0,1,72,84.14h3.29a1.41,1.41,0,0,1,1.45,1.43v2.11H74.61V86.32H72.77V89.8h2.57a1.46,1.46,0,0,1,1.45,1.45V96.5a1.45,1.45,0,0,1-1.45,1.43H72A1.47,1.47,0,0,1,70.6,96.5V94.28h2.18Z"/>
      <path class="cls-4" d="M80.42,86.32H78.49V84.14h6v2.18H82.6V97.93H80.42V86.32Z"/>
      <path class="cls-4" d="M88.58,95.75h2.18v2.18H88.58V95.75Z"/>
      <path class="cls-4" d="M95.52,84.14h4.74a1.46,1.46,0,0,1,1.45,1.45V96.5a1.45,1.45,0,0,1-1.45,1.43H95.52V84.14Zm4,2.18H97.7v9.44h1.84V86.32Z"/>
      <path class="cls-4" d="M108.42,95.58h-2.25l-0.29,2.35h-2.32l1.79-13.79h3.87L111,97.93h-2.25Zm-2-2.18h1.72l-0.87-7.09Z"/>
      <path class="cls-4" d="M114,86.32H112V84.14h6v2.18h-1.94V97.93H114V86.32Z"/>
      <path class="cls-4" d="M123.62,95.58h-2.25l-0.29,2.35h-2.32l1.79-13.79h3.87l1.74,13.79h-2.25Zm-2-2.18h1.72l-0.87-7.09Z"/>
      <path class="cls-4" d="M132.45,92.83v2.93h1.84V84.14h2.18V96.5A1.45,1.45,0,0,1,135,97.93h-3.29a1.47,1.47,0,0,1-1.45-1.43V92.83h2.18Z"/>
      <path class="cls-4" d="M141,84.14V95.75h1.84V84.14h2.18V96.5a1.45,1.45,0,0,1-1.45,1.43h-3.29a1.47,1.47,0,0,1-1.45-1.43V84.14H141Z"/>
      <path class="cls-4" d="M150.14,84.14l2.08,6.49V84.14h2.18V97.93h-2.25L149.66,90v7.89h-2.18V84.14h2.66Z"/>
      <path class="cls-4" d="M159,84.14v4.91l1.69-4.91H163l-2.3,6.41,2.57,7.38H161l-2-5.71v5.71h-2.18V84.14H159Z"/>
      <path class="cls-4" d="M164.9,84.14h2.18V97.93H164.9V84.14Z"/>
      <path class="cls-4" d="M175.11,97.93H169.5V84.14h5.44v2.18h-3.27v3.51H174V92h-2.3v3.75h3.44v2.18Z"/>
      <path class="cls-4" d="M179.64,95.75h2.18v2.18h-2.18V95.75Z"/>
      <path class="cls-4" d="M186.58,97.93V84.14H192v2.18h-3.27v3.51h2.78V92h-2.78v5.93h-2.18Z"/>
      <path class="cls-4" d="M194,85.59a1.49,1.49,0,0,1,1.45-1.45h3.29a1.46,1.46,0,0,1,1.45,1.45V96.5a1.45,1.45,0,0,1-1.45,1.43h-3.29A1.47,1.47,0,0,1,194,96.5V85.59Zm4,0.73h-1.84v9.44H198V86.32Z"/>
      <path class="cls-4" d="M202.58,84.14h2.18V97.93h-2.18V84.14Z"/>
      <path class="cls-4" d="M211.46,95.58h-2.25l-0.29,2.35H206.6l1.79-13.79h3.87L214,97.93h-2.25Zm-2-2.18h1.72l-0.87-7.09Z"/>
      <path class="cls-4" d="M218.62,97.93V84.14h5.45v2.18H220.8v3.51h2.78V92H220.8v5.93h-2.18Z"/>
      <path class="cls-4" d="M226,84.14h2.18V97.93H226V84.14Z"/>
      <path class="cls-4" d="M234.62,88.25V86.32h-1.84v9.44h1.84v-2h-0.73V91.62h2.9V96.5a1.45,1.45,0,0,1-1.45,1.43h-3.29a1.47,1.47,0,0,1-1.45-1.43V85.59a1.49,1.49,0,0,1,1.45-1.45h3.29a1.46,1.46,0,0,1,1.45,1.45v2.66h-2.18Z"/>
      <path class="cls-4" d="M239.22,84.14h2.18V90h1.84V84.14h2.18V97.93h-2.18V92.2h-1.84v5.74h-2.18V84.14Z"/>
      <path class="cls-4" d="M249,86.32h-1.94V84.14h6v2.18h-1.94V97.93H249V86.32Z"/>
      <path class="cls-4" d="M260.46,97.93h-5.61V84.14h5.45v2.18H257v3.51h2.3V92H257v3.75h3.44v2.18Z"/>
      <path class="cls-4" d="M266.66,92.41h-1.84v5.52h-2.18V84.14h4.48a1.46,1.46,0,0,1,1.45,1.45V90a1.16,1.16,0,0,1-.75,1.19,1.43,1.43,0,0,1,1,1.43v5.3h-2.18V92.41Zm-1.84-2.18h1.57V86.32h-1.57v3.92Z"/>
    </g>
  </g>
</svg>
